<?xml version="1.0" encoding="UTF-8" standalone="no"?>
<svg width="1050" height="800" xmlns="http://www.w3.org/2000/svg">
  <defs>
    <!-- Gradients for boxes - Updated with lighter colors -->
    <linearGradient id="factoryGradient" x1="0%" y1="0%" x2="100%" y2="100%">
      <stop offset="0%" stop-color="#ffd3b6" />
      <stop offset="100%" stop-color="#ffaaa5" />
    </linearGradient>
    <linearGradient id="beaconGradient" x1="0%" y1="0%" x2="100%" y2="100%">
      <stop offset="0%" stop-color="#a8e6cf" />
      <stop offset="100%" stop-color="#7dd3e8" />
    </linearGradient>
    <linearGradient id="contractGradient" x1="0%" y1="0%" x2="100%" y2="100%">
      <stop offset="0%" stop-color="#d8b5ff" />
      <stop offset="100%" stop-color="#b28dff" />
    </linearGradient>
    <linearGradient id="interactionGradient" x1="0%" y1="0%" x2="100%" y2="100%">
      <stop offset="0%" stop-color="#eeeeff" />
      <stop offset="100%" stop-color="#ccccff" />
    </linearGradient>
    
    <!-- Drop shadows -->
    <filter id="shadow" x="-10%" y="-10%" width="120%" height="130%">
      <feDropShadow dx="3" dy="3" stdDeviation="5" flood-opacity="0.2"/>
    </filter>
    
    <!-- Arrow markers - Made smaller -->
    <marker id="arrowhead" markerWidth="8" markerHeight="6" refX="7" refY="3" orient="auto">
      <polygon points="0 0, 8 3, 0 6" fill="#555"/>
    </marker>
  </defs>
  
  <!-- White Background -->
  <rect x="0" y="0" width="1050" height="800" fill="white"/>
  
  <!-- Title -->
  <text x="525" y="40" font-family="Arial, sans-serif" font-size="24" text-anchor="middle" font-weight="bold" fill="#333">Alvara Protocol Smart Contract Architecture</text>
  
  <!-- Factory Contract - Made taller to fit content -->
  <rect x="375" y="60" width="300" height="270" rx="15" ry="15" fill="url(#factoryGradient)" stroke="#555" stroke-width="2" filter="url(#shadow)"/>
  <text x="525" y="90" font-family="Arial, sans-serif" font-size="18" text-anchor="middle" font-weight="bold" fill="#333">Factory Contract</text>
  
  <!-- Divider line -->
  <line x1="395" y1="105" x2="655" y2="105" stroke="#555" stroke-width="2"/>
  
  <!-- BSKT-Config Section - Made taller to fully contain text -->
  <text x="405" y="125" font-family="Arial, sans-serif" font-size="16" font-weight="bold" fill="#333">BSKT-Config Section</text>
  <rect x="395" y="135" width="260" height="110" rx="5" ry="5" fill="rgba(255,255,255,0.45)" stroke="#666" stroke-width="1"/>
  <text x="405" y="155" font-family="Arial, sans-serif" font-size="14" fill="#333">• alva</text>
  <text x="405" y="175" font-family="Arial, sans-serif" font-size="14" fill="#333">• minPercentALVA</text>
  <text x="405" y="195" font-family="Arial, sans-serif" font-size="14" fill="#333">• bsktImplementation</text>
  <text x="405" y="215" font-family="Arial, sans-serif" font-size="14" fill="#333">• bsktPairImplementation</text>
  <text x="405" y="235" font-family="Arial, sans-serif" font-size="14" fill="#333">• royaltyReceiver</text>
  
  <!-- Helper Section - Moved down to avoid overlap -->
  <text x="405" y="270" font-family="Arial, sans-serif" font-size="16" font-weight="bold" fill="#333">Helper Section</text>
  <rect x="395" y="280" width="260" height="60" rx="5" ry="5" fill="rgba(255,255,255,0.45)" stroke="#666" stroke-width="1"/>
  <text x="405" y="300" font-family="Arial, sans-serif" font-size="14" fill="#333">• getPath()</text>
  <text x="405" y="320" font-family="Arial, sans-serif" font-size="14" fill="#333">• getAmountsOut()</text>
  
  <!-- BSKT-Beacon - Made wider and repositioned for more gap - Moved down -->
  <rect x="100" y="440" width="250" height="120" rx="10" ry="10" fill="url(#beaconGradient)" stroke="#555" stroke-width="2" filter="url(#shadow)"/>
  <text x="225" y="470" font-family="Arial, sans-serif" font-size="18" text-anchor="middle" font-weight="bold" fill="#333">BSKT-Beacon</text>
  <line x1="120" y1="485" x2="330" y2="485" stroke="#555" stroke-width="2"/>
  <rect x="120" y="495" width="210" height="50" rx="5" ry="5" fill="rgba(255,255,255,0.45)" stroke="#666" stroke-width="1"/>
  <text x="140" y="515" font-family="Arial, sans-serif" font-size="14" fill="#333">Implementation of</text>
  <text x="140" y="535" font-family="Arial, sans-serif" font-size="14" fill="#333">BSKT standard</text>
  
  <!-- BSKTPair-Beacon - Made wider and repositioned for more gap - Moved down -->
  <rect x="700" y="440" width="250" height="120" rx="10" ry="10" fill="url(#beaconGradient)" stroke="#555" stroke-width="2" filter="url(#shadow)"/>
  <text x="825" y="470" font-family="Arial, sans-serif" font-size="18" text-anchor="middle" font-weight="bold" fill="#333">BSKTPair-Beacon</text>
  <line x1="720" y1="485" x2="930" y2="485" stroke="#555" stroke-width="2"/>
  <rect x="720" y="495" width="210" height="50" rx="5" ry="5" fill="rgba(255,255,255,0.45)" stroke="#666" stroke-width="1"/>
  <text x="740" y="515" font-family="Arial, sans-serif" font-size="14" fill="#333">Implementation of</text>
  <text x="740" y="535" font-family="Arial, sans-serif" font-size="14" fill="#333">BSKT Pair</text>
  
  <!-- Factory to Beacons with improved curved arrows -->
  <!-- Left arrow to BSKT-Beacon - Curved path -->
  <path d="M375 320 C325 320, 275 360, 225 439" stroke="#555" stroke-width="3" fill="none" marker-end="url(#arrowhead)"/>
  
  <!-- Right arrow to BSKTPair-Beacon - Curved path -->
  <path d="M675 320 C725 320, 775 360, 825 439" stroke="#555" stroke-width="3" fill="none" marker-end="url(#arrowhead)"/>
  
  <!-- Improved "creates" label placement - moderately left -->
  <rect x="190" y="340" width="70" height="25" rx="12" ry="12" fill="rgba(255,255,255,0.9)" stroke="#555"/>
  <text x="225" y="357" font-family="Arial, sans-serif" font-size="12" text-anchor="middle" fill="#333">creates</text>
  
  <!-- Creates label for right arrow - moderately right -->
  <rect x="790" y="340" width="70" height="25" rx="12" ry="12" fill="rgba(255,255,255,0.9)" stroke="#555"/>
  <text x="825" y="357" font-family="Arial, sans-serif" font-size="12" text-anchor="middle" fill="#333">creates</text>
  
  <!-- BSKT Contract - Made wider and repositioned -->
  <rect x="100" y="640" width="250" height="120" rx="10" ry="10" fill="url(#contractGradient)" stroke="#555" stroke-width="2" filter="url(#shadow)"/>
  <text x="225" y="670" font-family="Arial, sans-serif" font-size="18" text-anchor="middle" font-weight="bold" fill="#333">BSKT Contract</text>
  <line x1="120" y1="685" x2="330" y2="685" stroke="#555" stroke-width="2"/>
  <rect x="110" y="695" width="230" height="55" rx="5" ry="5" fill="rgba(255,255,255,0.45)" stroke="#666" stroke-width="1"/>
  <text x="120" y="715" font-family="Arial, sans-serif" font-size="14" fill="#333">• contribution</text>
  <text x="120" y="735" font-family="Arial, sans-serif" font-size="14" fill="#333">• rebalance</text>
  <text x="230" y="715" font-family="Arial, sans-serif" font-size="14" fill="#333">• emergency</text>
  <text x="230" y="735" font-family="Arial, sans-serif" font-size="14" fill="#333">• stabilization</text>
  
  <!-- BSKTPair Contract - Made wider and repositioned -->
  <rect x="700" y="640" width="250" height="120" rx="10" ry="10" fill="url(#contractGradient)" stroke="#555" stroke-width="2" filter="url(#shadow)"/>
  <text x="825" y="670" font-family="Arial, sans-serif" font-size="18" text-anchor="middle" font-weight="bold" fill="#333">BSKT-Pair Contract</text>
  <line x1="720" y1="685" x2="930" y2="685" stroke="#555" stroke-width="2"/>
  <rect x="710" y="695" width="230" height="55" rx="5" ry="5" fill="rgba(255,255,255,0.45)" stroke="#666" stroke-width="1"/>
  <text x="730" y="715" font-family="Arial, sans-serif" font-size="14" fill="#333">• liquidity</text>
  <text x="730" y="735" font-family="Arial, sans-serif" font-size="14" fill="#333">• swapping</text>
  <text x="835" y="715" font-family="Arial, sans-serif" font-size="14" fill="#333">• token mgmt</text>
  
  <!-- Improved arrow from BSKT-Beacon to BSKT Contract with label to the side - Made taller -->
  <line x1="225" y1="560" x2="225" y2="639" stroke="#555" stroke-width="3" marker-end="url(#arrowhead)"/>
  <rect x="140" y="570" width="70" height="25" rx="12" ry="12" fill="rgba(255,255,255,0.9)" stroke="#555"/>
  <text x="175" y="587" font-family="Arial, sans-serif" font-size="12" text-anchor="middle" fill="#333">links to</text>
  
  <!-- Improved arrow from BSKTPair-Beacon to BSKTPair Contract with label to the side - Made taller -->
  <line x1="825" y1="560" x2="825" y2="639" stroke="#555" stroke-width="3" marker-end="url(#arrowhead)"/>
  <rect x="740" y="570" width="70" height="25" rx="12" ry="12" fill="rgba(255,255,255,0.9)" stroke="#555"/>
  <text x="775" y="587" font-family="Arial, sans-serif" font-size="12" text-anchor="middle" fill="#333">links to</text>
  
  <!-- Redesigned Interaction area with title - Centered between the two contract boxes -->
  <rect x="425" y="630" width="200" height="155" rx="15" ry="15" fill="url(#interactionGradient)" stroke="#555" stroke-width="2" filter="url(#shadow)"/>
  <text x="525" y="655" font-family="Arial, sans-serif" font-size="15" text-anchor="middle" font-weight="bold" fill="#333">Contract Interaction</text>
  
  <!-- Redesigned interaction details - Made taller -->
  <rect x="435" y="665" width="180" height="110" rx="5" ry="5" fill="rgba(255,255,255,0.85)" stroke="#555" stroke-width="1.5"/>
  <text x="525" y="685" font-family="Arial, sans-serif" font-size="14" text-anchor="middle" font-weight="bold" fill="#333">Functions:</text>
  <text x="455" y="705" font-family="Arial, sans-serif" font-size="14" fill="#333">• contribution</text>
  <text x="455" y="725" font-family="Arial, sans-serif" font-size="14" fill="#333">• rebalance</text>
  <text x="455" y="745" font-family="Arial, sans-serif" font-size="14" fill="#333">• emergency</text>
  <text x="455" y="765" font-family="Arial, sans-serif" font-size="14" fill="#333">• stabilization</text>
  
  <!-- Equal length interaction arrows showing bidirectional communication - Moved further down -->
  <!-- Left Side - BSKT Contract to Interaction box and vice versa -->
  <path d="M350 710 C380 710, 400 710, 424 710" stroke="#555" stroke-width="3" stroke-dasharray="10,5" fill="none" marker-end="url(#arrowhead)"/>
  <path d="M424 740 C400 740, 380 740, 350 740" stroke="#555" stroke-width="3" stroke-dasharray="10,5" fill="none" marker-end="url(#arrowhead)"/>
  
  <!-- Right Side - Interaction box to BSKT-Pair Contract and vice versa -->
  <path d="M625 710 C645 710, 670 710, 700 710" stroke="#555" stroke-width="3" stroke-dasharray="10,5" fill="none" marker-end="url(#arrowhead)"/>
  <path d="M700 740 C670 740, 645 740, 625 740" stroke="#555" stroke-width="3" stroke-dasharray="10,5" fill="none" marker-end="url(#arrowhead)"/>
</svg>
